<svg width="831px" height="159px" version="1.1" xmlns="http://www.w3.org/2000/svg" xmlns:xlink="http://www.w3.org/1999/xlink" overflow="visible" id="ycxa0n9">
 <desc>Engraved by Verovio 5.7.0-dev-8afca9d-dirty</desc>
 <defs>
  <g id="E062-ycxa0n9">
   <path transform="scale(1,-1)" d="M254 251c180 0 274 -112 274 -286c0 -184 -158 -362 -298 -463c-91 -71 -205 -118 -207 -118l-3 -1c-7 0 -16 2 -19 12c0 2 -1 3 -1 5c0 12 12 19 12 19c1 0 99 45 203 140c98 88 181 275 181 405c0 168 -50 250 -152 250c-35 0 -67 -6 -92 -20c-39 -21 -69 -65 -76 -109 c8 7 25 17 35 21c9 3 20 5 32 5c56 0 106 -47 106 -104c0 -66 -50 -109 -114 -109c-74 0 -116 54 -116 127s38 139 97 182c1 0 62 44 138 44zM568 124c0 28 22 51 48 51s48 -23 48 -51s-22 -50 -48 -50s-48 22 -48 50zM568 -123c0 28 22 51 48 51s48 -23 48 -51 s-22 -51 -48 -51s-48 23 -48 51z" />
  </g>
  <g id="E260-ycxa0n9">
   <path transform="scale(1,-1)" d="M120 155c59 0 83 -49 83 -101c0 -103 -90 -185 -176 -228c-2 -1 -6 -2 -8 -2c-8 0 -14 6 -14 14l-5 601c0 8 6 14 14 14h12c8 0 14 -6 14 -14l-4 -321c5 6 34 37 84 37zM33 -127c66 52 99 89 99 178c0 21 -3 55 -39 55c-40 0 -55 -29 -57 -38z" />
  </g>
  <g id="E915-ycxa0n9">
   <path transform="scale(1,-1)" d="M421 96c-46 77 -101 108 -181 108c-113 0 -204 -91 -204 -204s91 -204 204 -204c78 0 129 34 177 110l33 -22c-41 -74 -120 -124 -210 -124c-132 0 -240 108 -240 240s108 240 240 240c89 0 163 -45 209 -122z" />
  </g>
  <g id="E925-ycxa0n9">
   <path transform="scale(1,-1)" d="M0 408h36v-816h-36v816z" />
  </g>
  <g id="E0A2-ycxa0n9">
   <path transform="scale(1,-1)" d="M187 136c138 0 186 -70 186 -135s-48 -135 -186 -135s-187 70 -187 135s49 135 187 135zM195 -102c40 0 76 8 76 57c0 25 -19 90 -33 116c-14 27 -32 33 -59 33c-16 0 -32 -2 -44 -6c-24 -8 -34 -24 -32 -51c1 -26 19 -91 32 -116s32 -33 60 -33z" />
  </g>
  <g id="E0A3-ycxa0n9">
   <path transform="scale(1,-1)" d="M213 132c62 0 112 -33 112 -92c0 -88 -109 -173 -213 -173c-81 0 -112 48 -112 91c0 93 116 174 213 174zM75 -86c46 0 215 85 215 135c0 22 -16 36 -40 36c-47 0 -215 -86 -215 -135c0 -9 7 -36 40 -36z" />
  </g>
  <g id="E0A4-ycxa0n9">
   <path transform="scale(1,-1)" d="M0 -42c0 92 116 174 213 174c62 0 112 -33 112 -92c0 -88 -109 -173 -213 -173c-81 0 -112 48 -112 91z" />
  </g>
 </defs>
 <style type="text/css">#ycxa0n9 g.page-margin {font-family:Times,serif;}#ycxa0n9 g.ending, #ycxa0n9 g.fing, #ycxa0n9 g.reh, #ycxa0n9 g.tempo {font-weight:bold;}#ycxa0n9 g.dir, #ycxa0n9 g.dynam, #ycxa0n9 g.mNum {font-style:italic;}#ycxa0n9 g.label {font-weight:normal;}#ycxa0n9 path {stroke:currentColor}</style>
 <svg class="definition-scale" color="black" viewBox="0 0 17310 3300">
  <g class="page-margin" transform="translate(300, 1000)">
   <g id="zyefciw" class="mdiv pageMilestone" />
   <g id="ami3tsm" class="score pageMilestone" />
   <g id="ydxj4xc" class="system">
    <g id="csucxvf" class="label">
     <text x="1308" y="990" text-anchor="end" font-size="0px">
      <tspan id="dr7yyr7" class="text">
       <tspan font-size="405px">Bassus</tspan>
      </tspan>
     </text>
    </g>
    <g id="section-L7F1" class="section systemMilestone" />
    <g id="measure-L1" class="measure m-14">
     <g id="k1uvienp" class="mNum autogenerated">
      <text x="1488" y="297" text-anchor="middle" font-size="0px">
       <tspan id="lnyryi0" class="text">
        <tspan font-size="324px">14</tspan>
       </tspan>
      </text>
     </g>
     <g id="staff-L7F1" class="staff">
      <path d="M1488 540 L8019 540" stroke-width="10" />
      <path d="M1488 720 L8019 720" stroke-width="10" />
      <path d="M1488 900 L8019 900" stroke-width="10" />
      <path d="M1488 1080 L8019 1080" stroke-width="10" />
      <path d="M1488 1260 L8019 1260" stroke-width="10" />
      <g id="iwc323l" class="clef">
       <use xlink:href="#E062-ycxa0n9" transform="translate(1623, 720) scale(0.72, 0.72)" />
      </g>
      <g id="j6kkah6" class="keySig">
       <g id="k1i0p0uq" class="keyAccid">
        <use xlink:href="#E260-ycxa0n9" transform="translate(2281, 1080) scale(0.72, 0.72)" />
       </g>
      </g>
      <g id="lxr76yq" class="mensur">
       <use xlink:href="#E915-ycxa0n9" transform="translate(2607, 900) scale(0.72, 0.72)" />
       <use xlink:href="#E925-ycxa0n9" transform="translate(2767, 900) scale(0.72, 0.72)" />
      </g>
      <g id="mubf97i" class="meterSig" visibility="hidden" />
      <g id="layer-L1F1N1" class="layer">
       <g id="note-L18F1" class="note qon-0 qoff-4 pname-f acc-n oct-3 b40c-19 b12c-5 ">
        <g class="notehead">
         <use xlink:href="#E0A2-ycxa0n9" transform="translate(3254, 720) scale(0.72, 0.72)" />
        </g>
        <g id="accid-L18F1" class="accid" />
        <g id="verse-L18F2" class="verse">
         <g id="syl-L18F2" class="syl m">
          <text x="3164" y="1821" font-size="0px">
           <tspan id="h44jkdk" class="text">
            <tspan font-size="405px">stres</tspan>
           </tspan>
          </text>
          <rect stroke-opacity="1" fill-opacity="1" x="5040" y="1718" height="22" width="98" />
          <rect stroke-opacity="1" fill-opacity="1" x="6240" y="1718" height="22" width="98" />
          <rect stroke-opacity="1" fill-opacity="1" x="7440" y="1718" height="22" width="98" />
          <rect stroke-opacity="1" fill-opacity="1" x="8640" y="1718" height="22" width="98" />
          <rect stroke-opacity="1" fill-opacity="1" x="9840" y="1718" height="22" width="98" />
          <rect stroke-opacity="1" fill-opacity="1" x="11040" y="1718" height="22" width="98" />
          <rect stroke-opacity="1" fill-opacity="1" x="12240" y="1718" height="22" width="98" />
          <rect stroke-opacity="1" fill-opacity="1" x="13440" y="1718" height="22" width="98" />
         </g>
        </g>
       </g>
       <g id="note-L20F1" class="note qon-4 qoff-6 pname-b acc-f oct-2 b40c-36 b12c-10 ">
        <g class="notehead">
         <use xlink:href="#E0A3-ycxa0n9" transform="translate(5305, 1080) scale(0.72, 0.72)" />
        </g>
        <g id="u1ya4arw" class="stem">
         <path d="M5529 1052 L5529 450" stroke-width="18" />
        </g>
        <g id="accid-L20F1" class="accid" />
       </g>
       <g id="note-L22F1" class="note qon-6 qoff-8 pname-e acc-f oct-3 b40c-13 b12c-3  tie-start">
        <g class="notehead">
         <use xlink:href="#E0A3-ycxa0n9" transform="translate(6660, 810) scale(0.72, 0.72)" />
        </g>
        <g id="v9wdigi" class="stem">
         <path d="M6669 840 L6669 1440" stroke-width="18" />
        </g>
        <g id="accid-L22F1" class="accid">
         <use xlink:href="#E260-ycxa0n9" transform="translate(6720, 355) scale(0.54, 0.54)" />
        </g>
       </g>
      </g>
     </g>
     <g id="tie-L22F1-L25F1" class="tie">
      <path d="M6939,765 C7251,609 7894,609 8207,765 C7885,657 7260,657 6939,765" stroke-linecap="round" stroke-linejoin="round" stroke-width="9" />
     </g>
     <g id="apt4eub" class="barLine">
      <path d="M8014 540 L8014 1260" stroke-width="10" />
     </g>
    </g>
    <g id="measure-L24" class="measure m-15">
     <g id="staff-L24F1N1" class="staff">
      <path d="M8019 540 L14527 540" stroke-width="10" />
      <path d="M8019 720 L14527 720" stroke-width="10" />
      <path d="M8019 900 L14527 900" stroke-width="10" />
      <path d="M8019 1080 L14527 1080" stroke-width="10" />
      <path d="M8019 1260 L14527 1260" stroke-width="10" />
      <g id="layer-L24F1N1" class="layer">
       <g id="note-L25F1" class="note qon-8 qoff-9 pname-e acc-f oct-3 b40c-13 b12c-3  tie-stop">
        <g class="notehead">
         <use xlink:href="#E0A4-ycxa0n9" transform="translate(8252, 810) scale(0.72, 0.72)" />
        </g>
        <g id="wq5t6vt" class="stem">
         <path d="M8261 840 L8261 1440" stroke-width="18" />
        </g>
        <g id="accid-L25F1" class="accid" />
       </g>
       <g id="note-L26F1" class="note qon-9 qoff-10 pname-d acc-n oct-3 b40c-8 b12c-2 ">
        <g class="notehead">
         <use xlink:href="#E0A4-ycxa0n9" transform="translate(9142, 900) scale(0.72, 0.72)" />
        </g>
        <g id="xt4mkgj" class="stem">
         <path d="M9151 930 L9151 1500" stroke-width="18" />
        </g>
        <g id="accid-L26F1" class="accid" />
       </g>
       <g id="note-L27F1" class="note qon-10 qoff-11 pname-b acc-f oct-2 b40c-36 b12c-10 ">
        <g class="notehead">
         <use xlink:href="#E0A4-ycxa0n9" transform="translate(10032, 1080) scale(0.72, 0.72)" />
        </g>
        <g id="yd7txwx" class="stem">
         <path d="M10256 1052 L10256 450" stroke-width="18" />
        </g>
        <g id="accid-L27F1" class="accid" />
       </g>
       <g id="note-L28F1" class="note qon-11 qoff-12 pname-c acc-n oct-3 b40c-2 b12c-0 ">
        <g class="notehead">
         <use xlink:href="#E0A4-ycxa0n9" transform="translate(10922, 990) scale(0.72, 0.72)" />
        </g>
        <g id="z19qft5p" class="stem">
         <path d="M11146 962 L11146 360" stroke-width="18" />
        </g>
        <g id="accid-L28F1" class="accid" />
       </g>
       <g id="note-L29F1" class="note qon-12 qoff-14 pname-d acc-n oct-3 b40c-8 b12c-2 ">
        <g class="notehead">
         <use xlink:href="#E0A3-ycxa0n9" transform="translate(11813, 900) scale(0.72, 0.72)" />
        </g>
        <g id="a1b6xunv" class="stem">
         <path d="M11822 930 L11822 1500" stroke-width="18" />
        </g>
        <g id="accid-L29F1" class="accid" />
       </g>
       <g id="note-L30F1" class="note qon-14 qoff-16 pname-e acc-f oct-3 b40c-13 b12c-3 ">
        <g class="notehead">
         <use xlink:href="#E0A3-ycxa0n9" transform="translate(13167, 810) scale(0.72, 0.72)" />
        </g>
        <g id="b1sl4y00" class="stem">
         <path d="M13176 840 L13176 1440" stroke-width="18" />
        </g>
        <g id="accid-L30F1" class="accid">
         <use xlink:href="#E260-ycxa0n9" transform="translate(13227, 355) scale(0.54, 0.54)" />
        </g>
       </g>
      </g>
     </g>
     <g id="u1mjf5nm" class="barLine">
      <path d="M14522 540 L14522 1260" stroke-width="10" />
     </g>
    </g>
    <g id="measure-L31" class="measure m-16">
     <g id="staff-L31F1N1" class="staff">
      <path d="M14527 540 L16811 540" stroke-width="10" />
      <path d="M14527 720 L16811 720" stroke-width="10" />
      <path d="M14527 900 L16811 900" stroke-width="10" />
      <path d="M14527 1080 L16811 1080" stroke-width="10" />
      <path d="M14527 1260 L16811 1260" stroke-width="10" />
      <g id="layer-L31F1N1" class="layer">
       <g id="note-L32F1" class="note qon-16 qoff-20 pname-d acc-n oct-3 b40c-8 b12c-2 ">
        <g class="notehead">
         <use xlink:href="#E0A2-ycxa0n9" transform="translate(14760, 900) scale(0.72, 0.72)" />
        </g>
        <g id="accid-L32F1" class="accid" />
        <g id="verse-L32F2" class="verse">
         <g id="syl-L32F2" class="syl t">
          <text x="14670" y="1821" font-size="0px">
           <tspan id="z1wsnuwx" class="text">
            <tspan font-size="405px">se</tspan>
           </tspan>
          </text>
         </g>
        </g>
       </g>
      </g>
     </g>
     <g id="svp1y05" class="barLine" />
    </g>
    <g id="h1draeye" class="systemMilestoneEnd section-L7F1" />
   </g>
   <g id="i16d3sge" class="pageMilestoneEnd ami3tsm" />
   <g id="j1m1lpro" class="pageMilestoneEnd zyefciw" />
  </g>
 </svg>
</svg>
