<svg version="1.1" id="Layer_1" xmlns="http://www.w3.org/2000/svg" xmlns:xlink="http://www.w3.org/1999/xlink" x="0px" y="0px"
	 width="100%" viewBox="0 0 592 1024" enable-background="new 0 0 592 1024" xml:space="preserve">
<path fill="#000000" opacity="1.000000" stroke="none" 
	d="
M343.307404,686.315491 
	C351.425964,663.833008 351.376984,641.758179 341.477783,620.371887 
	C332.537842,601.057983 316.313019,591.967773 295.424072,590.219421 
	C274.506104,588.468506 257.570007,597.139099 242.013000,609.806641 
	C228.589645,620.736877 217.745010,633.987610 207.576736,647.862366 
	C206.007111,650.004150 204.423859,652.212280 202.482361,653.992004 
	C194.386429,661.413330 185.166748,658.926514 181.730087,648.358887 
	C178.908249,639.681824 181.525696,631.722656 186.430893,624.718689 
	C196.269150,610.671021 206.193024,596.653809 217.848038,583.993103 
	C232.052277,568.563171 248.134903,555.656311 268.602478,549.797668 
	C304.534637,539.512695 337.059906,546.947937 364.934479,571.572266 
	C399.745331,602.324158 410.393463,650.873901 393.323792,694.968994 
	C385.686005,714.699219 374.284302,731.954956 359.692596,747.099670 
	C336.320648,771.357239 310.544830,793.040405 285.628052,815.641968 
	C275.269531,825.037964 264.753113,834.244019 253.857758,843.023254 
	C251.224487,845.145203 247.651123,847.853210 248.918518,851.546997 
	C250.362488,855.755127 255.029297,855.674011 258.833069,855.642517 
	C290.982483,855.376709 323.130646,854.950195 355.280212,854.726807 
	C359.703430,854.696045 361.457275,852.198059 362.698761,848.677429 
	C366.137390,838.925903 367.883270,828.727539 370.588257,818.782288 
	C370.937439,817.498474 371.254028,816.205811 371.601746,814.921570 
	C374.018768,805.994568 375.681854,804.691650 384.664948,804.679077 
	C387.164215,804.675537 389.663513,804.665222 392.162720,804.677124 
	C399.103729,804.710205 401.093506,806.516357 401.266052,813.464539 
	C401.679443,830.112488 401.992340,846.763123 402.303436,863.413452 
	C402.390594,868.077148 402.419159,872.745667 402.317261,877.408508 
	C402.162750,884.480469 397.880768,888.965820 390.858215,889.323669 
	C384.872009,889.628662 378.873993,889.848206 372.881073,889.852112 
	C311.732513,889.892029 250.582367,889.657715 189.436829,890.088562 
	C178.489288,890.165649 173.670761,882.904907 176.775360,873.800354 
	C179.245270,866.557068 181.378937,859.187439 184.139191,852.058716 
	C186.172516,846.807373 190.276474,843.046997 194.925613,839.895264 
	C226.154877,818.725159 255.670013,795.408936 282.731415,769.085205 
	C303.101562,749.270325 321.737488,728.024170 335.606079,702.982910 
	C338.518188,697.724731 340.921753,692.240173 343.307404,686.315491 
z"/>
<path fill="#000000" opacity="1.000000" stroke="none" 
	d="
M159.835388,262.783936 
	C122.541786,346.750946 169.226608,443.733765 257.772614,466.921143 
	C319.297882,483.032684 383.992493,457.661194 418.591034,403.683472 
	C422.958099,396.870361 428.454041,392.691742 436.708496,394.098938 
	C448.916138,396.180084 454.902771,410.355133 447.926392,420.917969 
	C421.096069,461.541168 384.685333,489.079224 336.893982,500.171967 
	C234.482681,523.942444 135.342392,459.382416 116.199173,355.365326 
	C105.724953,298.452332 120.699219,247.378616 158.771866,203.626450 
	C185.698044,172.683502 219.690231,153.395966 259.890961,145.260620 
	C330.925568,130.885498 404.806519,161.765289 445.114258,222.529144 
	C451.571686,232.263702 450.632477,241.024719 442.532440,246.611328 
	C433.923950,252.548615 423.866730,250.370712 417.441437,241.024582 
	C396.296875,210.268112 367.868134,189.622330 331.706879,180.283218 
	C261.917389,162.259216 190.344482,196.667130 159.835388,262.783936 
z"/>
</svg>