<?xml version="1.0" standalone="no"?>
<!DOCTYPE svg PUBLIC "-//W3C//DTD SVG 20010904//EN"
 "http://www.w3.org/TR/2001/REC-SVG-20010904/DTD/svg10.dtd">
<svg version="1.0" xmlns="http://www.w3.org/2000/svg"
 width="300.000000pt" height="390.000000pt" viewBox="0 0 300.000000 390.000000"
 preserveAspectRatio="xMidYMid meet">
<metadata>
Created by potrace 1.10, written by Peter Selinger 2001-2011
</metadata>
<g transform="translate(0.000000,390.000000) scale(0.100000,-0.100000)"
fill="#000000" stroke="none">
<path d="M757 3880 c-27 -21 -27 -22 -27 -150 l0 -129 -47 -7 c-287 -41 -540
-252 -634 -526 -73 -216 -58 -426 47 -629 105 -203 319 -367 536 -409 111 -22
98 0 98 -170 0 -137 2 -152 20 -170 27 -27 71 -26 98 3 21 22 22 33 22 170 0
144 0 147 23 151 103 21 140 32 197 54 189 74 344 220 431 405 92 197 97 440
13 639 -54 129 -168 272 -275 345 -97 67 -233 122 -341 137 l-48 7 0 124 c0
102 -3 126 -17 143 -27 32 -64 37 -96 12z m332 -492 c168 -80 304 -255 347
-444 34 -155 5 -331 -78 -472 -88 -151 -273 -277 -446 -307 l-42 -7 0 650 0
650 68 -15 c37 -8 105 -33 151 -55z m-359 -583 c0 -509 -3 -645 -12 -645 -43
1 -152 36 -222 72 -212 110 -346 335 -346 577 0 188 70 344 212 477 93 87 247
162 336 163 l32 1 0 -645z"/>
<path d="M752 1650 c-86 -18 -208 -95 -291 -186 -23 -24 -41 -47 -41 -52 0
-10 58 -92 64 -92 3 0 34 29 71 65 85 84 145 115 222 115 75 -1 136 -28 159
-71 25 -49 15 -167 -19 -240 -46 -95 -189 -209 -264 -209 -26 0 -39 -34 -29
-74 5 -22 11 -23 113 -29 132 -7 202 -27 253 -73 139 -126 58 -385 -152 -484
-53 -25 -75 -30 -141 -30 -96 0 -137 16 -189 75 -45 51 -92 80 -115 71 -12 -5
-14 -23 -11 -95 3 -101 16 -123 93 -164 35 -19 56 -22 160 -22 105 1 130 4
200 28 111 39 208 99 286 176 240 239 171 559 -143 660 -21 7 -38 16 -38 20 0
4 21 22 46 41 59 42 127 134 144 194 17 61 8 160 -18 212 -60 117 -223 192
-360 164z"/>
</g>
</svg>
