<?xml version="1.0" standalone="no"?>
<!DOCTYPE svg PUBLIC "-//W3C//DTD SVG 20010904//EN"
 "http://www.w3.org/TR/2001/REC-SVG-20010904/DTD/svg10.dtd">
<svg version="1.0" xmlns="http://www.w3.org/2000/svg"
 width="300.000000pt" height="300.000000pt" viewBox="0 0 300.000000 300.000000"
 preserveAspectRatio="xMidYMid meet">
<metadata>
Created by potrace 1.10, written by Peter Selinger 2001-2011
</metadata>
<g transform="translate(0.000000,300.000000) scale(0.100000,-0.100000)"
fill="#000000" stroke="none">
<path d="M2110 2909 c-24 -5 -68 -20 -97 -34 -53 -27 -203 -158 -203 -179 0
-6 12 -28 26 -49 l25 -38 68 63 c87 83 129 103 207 102 115 -2 163 -58 150
-171 -14 -118 -109 -241 -213 -278 -74 -26 -78 -29 -78 -66 l0 -34 117 -11
c132 -13 193 -36 233 -88 91 -119 19 -317 -147 -407 -54 -29 -73 -34 -133 -34
-98 0 -117 7 -184 75 -34 34 -69 60 -81 60 -19 0 -20 -6 -20 -86 0 -86 0 -87
34 -119 47 -44 107 -59 214 -53 329 19 601 302 528 549 -29 101 -101 174 -219
221 -28 12 -54 23 -56 25 -2 2 22 27 55 57 105 95 142 198 111 307 -22 73 -65
122 -140 158 -70 33 -131 42 -197 30z"/>
<path d="M756 2549 c-26 -20 -26 -22 -26 -147 l0 -127 -98 -21 c-288 -63 -512
-272 -598 -559 -22 -75 -27 -110 -27 -210 -1 -150 17 -226 85 -365 45 -93 61
-115 147 -200 78 -78 113 -105 186 -142 93 -48 173 -75 253 -87 l47 -6 5 -158
c4 -142 7 -160 24 -173 29 -21 70 -17 94 9 21 22 22 33 22 170 0 110 3 149 13
151 6 2 41 9 77 16 182 33 374 158 485 315 336 473 77 1125 -492 1242 l-83 18
0 123 c0 117 -1 124 -25 147 -30 30 -54 31 -89 4z m-26 -1075 l0 -645 -37 6
c-234 40 -442 219 -514 445 -30 91 -36 252 -15 345 29 123 79 209 181 310 66
66 108 99 157 123 67 33 206 74 221 65 4 -2 7 -294 7 -649z m303 611 c186 -74
325 -225 393 -425 15 -43 19 -84 19 -185 0 -116 -3 -138 -27 -203 -37 -103
-82 -174 -158 -251 -97 -98 -215 -160 -352 -185 l-38 -7 0 649 0 649 53 -9
c28 -5 78 -20 110 -33z"/>
<path d="M2180 1439 c-112 -22 -226 -112 -328 -258 -40 -57 -52 -83 -52 -111
0 -36 23 -70 48 -70 6 0 42 37 79 82 72 87 161 159 219 178 20 7 67 10 104 8
87 -5 142 -39 179 -113 22 -42 26 -63 26 -140 0 -81 -3 -97 -33 -160 -70 -148
-237 -325 -475 -504 -126 -95 -137 -105 -152 -151 -9 -27 -15 -62 -13 -77 l3
-28 429 -3 c308 -1 433 1 442 9 15 12 19 168 7 267 l-6 53 -46 -3 -46 -3 -18
-60 c-10 -33 -24 -76 -31 -95 l-12 -35 -219 0 c-166 0 -219 3 -222 12 -3 7 13
28 34 47 390 343 455 409 511 521 43 85 55 142 50 243 -3 72 -10 99 -35 154
-59 126 -170 213 -302 238 -61 11 -78 11 -141 -1z"/>
</g>
</svg>
